{"title":"Batman vs Superman (2016) 1080p mHD Blu-ray AAC 5.1.EUE-DDR","uid":15279552,"size":4318643853,"categoryP":"video","categoryS":"hd___movies","magnet":"?xt=urn:btih:504bc6526dbf886d8974f561527bdd438e1e5c99&amp;dn=Batman+vs+Superman+%282016%29+1080p+mHD+Blu-ray+AAC+5.1.EUE-DDR&amp;tr=udp%3A%2F%2Ftracker.leechers-paradise.org%3A6969&amp;tr=udp%3A%2F%2Fzer0day.ch%3A1337&amp;tr=udp%3A%2F%2Fopen.demonii.com%3A1337&amp;tr=udp%3A%2F%2Ftracker.coppersurfer.tk%3A6969&amp;tr=udp%3A%2F%2Fexodus.desync.com%3A6969","seeders":124,"leechers":35,"uploader":"SaM","files":3,"time":1468335326,"description":"1080p mHD Blu-ray Rip x264\r\n\r\nAAC 5.1 English Audio\r\n\r\nEnglish, French, Spanish, Portuguese &amp; Thai Subtitles \r\n \nhttp://extraimago.com/image/axzW \nhttp://extraimago.com/image/axzf \nhttp://extraimago.com/image/ax08 \nhttp://extraimago.com/image/ax0a \nhttp://extraimago.com/image/ax0w \nhttp://extraimago.com/image/ax02 \nhttp://extraimago.com/image/ax0N \nhttp://extraimago.com/image/ax0T \nhttp://extraimago.com/image/ax0j\r\n\r\nSpecs:\r\nSource: BD50 @ DDR\r\n\r\nFormat : Matroska\r\nFile size : 3.99 GiB\r\nDuration : 3h 2mn\r\nOverall bit rate : 3 127 Kbps\r\nEncoded date : UTC 2016-07-12 01:03:31\r\n\r\nVideo\r\nFormat : AVC\r\nFormat profile :   \r\nDuration : 3h 2mn\r\nBit rate : 2 920 Kbps\r\nWidth : 1 920 pixels\r\nHeight : 800 pixels\r\nDisplay aspect ratio : 2.40:1\r\nFrame rate mode : Constant\r\nFrame rate : 23.976 (24000/1001) fps\r\nColor space : YUV\r\nChroma subsampling : 4:2:0\r\nBit depth : 8 bits\r\nScan type : Progressive\r\nBits/(Pixel*Frame) : 0.079\r\nStream size : 3.72 GiB (93%)\r\n\r\nFormat : Atmos / TrueHD\r\nFormat : AAC\r\nFormat/Info : Advanced Audio Codec\r\nFormat profile : LC\r\nCodec ID : A_AAC\r\nDuration : 3h 2mn\r\nBit rate : 192 Kbps\r\nChannel(s) : 6 channels\r\nChannel positions : Front: L C R, Side: L R, LFE\r\nSampling rate : 48.0 KHz\r\nFrame rate : 46.875 fps (1024 spf)\r\nCompression mode : Lossy\r\nDelay relative to video : 9ms\r\nStream size : 250 MiB (6%)\r\nLanguage : English\r\nDefault : Yes\r\nForced : No\r\n\r\n\r\n\r\n\r\nChapters : YES - 16\r\nSAMPLE Included\r\n\r\nA DDR Exclusive Encode","torrent":{"xt":"urn:btih:504bc6526dbf886d8974f561527bdd438e1e5c99","amp;dn":"Batman+vs+Superman+%282016%29+1080p+mHD+Blu-ray+AAC+5.1.EUE-DDR","amp;tr":["udp%3A%2F%2Ftracker.leechers-paradise.org%3A6969","udp%3A%2F%2Fzer0day.ch%3A1337","udp%3A%2F%2Fopen.demonii.com%3A1337","udp%3A%2F%2Ftracker.coppersurfer.tk%3A6969","udp%3A%2F%2Fexodus.desync.com%3A6969"],"infoHash":"504bc6526dbf886d8974f561527bdd438e1e5c99","infoHashBuffer":{"type":"Buffer","data":[80,75,198,82,109,191,136,109,137,116,245,97,82,123,221,67,142,30,92,153]},"announce":[],"urlList":[]}}